<mxfile host="65bd71144e">
    <diagram id="VzATXcKWltoqgMeSLEH0" name="Page-1">
        <mxGraphModel dx="1358" dy="765" grid="0" gridSize="10" guides="1" tooltips="1" connect="1" arrows="1" fold="1" page="1" pageScale="1" pageWidth="850" pageHeight="1100" math="0" shadow="0">
            <root>
                <mxCell id="0"/>
                <mxCell id="1" style="" parent="0"/>
                <mxCell id="2" value="Producer" style="rounded=0;whiteSpace=wrap;html=1;sketch=1;fillColor=#ffe6cc;strokeColor=#d79b00;" parent="1" vertex="1">
                    <mxGeometry x="30" y="30" width="120" height="60" as="geometry"/>
                </mxCell>
                <mxCell id="18" value="Broker 1" style="rounded=1;whiteSpace=wrap;html=1;sketch=1;arcSize=6;verticalAlign=top;" parent="1" vertex="1">
                    <mxGeometry x="280" y="170" width="183" height="220" as="geometry"/>
                </mxCell>
                <mxCell id="19" value="Broker 2" style="rounded=1;whiteSpace=wrap;html=1;sketch=1;arcSize=6;verticalAlign=top;" parent="1" vertex="1">
                    <mxGeometry x="490" y="170" width="177" height="223" as="geometry"/>
                </mxCell>
                <mxCell id="105" value="ack=all" style="text;html=1;align=center;verticalAlign=middle;resizable=0;points=[];autosize=1;strokeColor=none;fillColor=none;" vertex="1" parent="1">
                    <mxGeometry x="157" y="40" width="48" height="18" as="geometry"/>
                </mxCell>
                <mxCell id="106" value="replicas=3&lt;br&gt;in-sync-replicas=2" style="text;html=1;align=left;verticalAlign=middle;resizable=0;points=[];autosize=1;strokeColor=none;fillColor=none;" vertex="1" parent="1">
                    <mxGeometry x="383" y="104" width="107" height="32" as="geometry"/>
                </mxCell>
                <mxCell id="110" value="broker0" parent="0" visible="0"/>
                <mxCell id="111" value="Broker 0" style="rounded=1;whiteSpace=wrap;html=1;sketch=1;arcSize=6;verticalAlign=top;" vertex="1" parent="110">
                    <mxGeometry x="40" y="170" width="185" height="217" as="geometry"/>
                </mxCell>
                <mxCell id="112" value="topic" style="shape=cylinder3;whiteSpace=wrap;html=1;boundedLbl=1;backgroundOutline=1;size=4;fontSize=10;direction=south;fillColor=#f8cecc;strokeColor=#b85450;sketch=1;" vertex="1" parent="110">
                    <mxGeometry x="100" y="210" width="60" height="30" as="geometry"/>
                </mxCell>
                <mxCell id="113" style="edgeStyle=orthogonalEdgeStyle;html=1;" edge="1" parent="110" target="112">
                    <mxGeometry relative="1" as="geometry">
                        <mxPoint x="90" y="90" as="sourcePoint"/>
                    </mxGeometry>
                </mxCell>
                <mxCell id="114" style="edgeStyle=orthogonalEdgeStyle;html=1;entryX=0.5;entryY=0;entryDx=0;entryDy=0;entryPerimeter=0;" edge="1" parent="110" target="112">
                    <mxGeometry relative="1" as="geometry">
                        <mxPoint x="320" y="225" as="sourcePoint"/>
                    </mxGeometry>
                </mxCell>
                <mxCell id="115" style="edgeStyle=orthogonalEdgeStyle;html=1;entryX=0.855;entryY=0;entryDx=0;entryDy=1.16;entryPerimeter=0;" edge="1" parent="110" target="112">
                    <mxGeometry relative="1" as="geometry">
                        <mxPoint x="550" y="285" as="sourcePoint"/>
                    </mxGeometry>
                </mxCell>
                <mxCell id="116" value="replica topic" style="shape=cylinder3;whiteSpace=wrap;html=1;boundedLbl=1;backgroundOutline=1;size=4;fontSize=10;direction=south;fillColor=#ffe6cc;strokeColor=#d79b00;sketch=1;" vertex="1" parent="110">
                    <mxGeometry x="320" y="210" width="60" height="30" as="geometry"/>
                </mxCell>
                <mxCell id="117" value="replica topic" style="shape=cylinder3;whiteSpace=wrap;html=1;boundedLbl=1;backgroundOutline=1;size=4;fontSize=10;direction=south;fillColor=#ffe6cc;strokeColor=#d79b00;sketch=1;" vertex="1" parent="110">
                    <mxGeometry x="550" y="270" width="60" height="30" as="geometry"/>
                </mxCell>
                <mxCell id="24" value="mesg sent" style="locked=1;" parent="0"/>
                <mxCell id="26" value="" style="group" parent="24" vertex="1" connectable="0">
                    <mxGeometry x="70" y="250" width="40" height="30" as="geometry"/>
                </mxCell>
                <mxCell id="27" value="" style="rounded=0;whiteSpace=wrap;html=1;sketch=1;" parent="26" vertex="1">
                    <mxGeometry width="40" height="30" as="geometry"/>
                </mxCell>
                <mxCell id="28" value="" style="triangle;whiteSpace=wrap;html=1;sketch=1;rotation=90;" parent="26" vertex="1">
                    <mxGeometry x="12.5" y="-12.5" width="15" height="40" as="geometry"/>
                </mxCell>
                <mxCell id="29" value="" style="group" parent="24" vertex="1" connectable="0">
                    <mxGeometry x="80" y="260" width="40" height="30" as="geometry"/>
                </mxCell>
                <mxCell id="30" value="" style="rounded=0;whiteSpace=wrap;html=1;sketch=1;" parent="29" vertex="1">
                    <mxGeometry width="40" height="30" as="geometry"/>
                </mxCell>
                <mxCell id="31" value="" style="triangle;whiteSpace=wrap;html=1;sketch=1;rotation=90;" parent="29" vertex="1">
                    <mxGeometry x="12.5" y="-12.5" width="15" height="40" as="geometry"/>
                </mxCell>
                <mxCell id="32" value="" style="group" parent="24" vertex="1" connectable="0">
                    <mxGeometry x="90" y="270" width="40" height="30" as="geometry"/>
                </mxCell>
                <mxCell id="33" value="" style="rounded=0;whiteSpace=wrap;html=1;sketch=1;" parent="32" vertex="1">
                    <mxGeometry width="40" height="30" as="geometry"/>
                </mxCell>
                <mxCell id="34" value="" style="triangle;whiteSpace=wrap;html=1;sketch=1;rotation=90;" parent="32" vertex="1">
                    <mxGeometry x="12.5" y="-12.5" width="15" height="40" as="geometry"/>
                </mxCell>
                <mxCell id="35" value="" style="group" parent="24" vertex="1" connectable="0">
                    <mxGeometry x="100" y="280" width="40" height="30" as="geometry"/>
                </mxCell>
                <mxCell id="36" value="" style="rounded=0;whiteSpace=wrap;html=1;sketch=1;" parent="35" vertex="1">
                    <mxGeometry width="40" height="30" as="geometry"/>
                </mxCell>
                <mxCell id="37" value="" style="triangle;whiteSpace=wrap;html=1;sketch=1;rotation=90;" parent="35" vertex="1">
                    <mxGeometry x="12.5" y="-12.5" width="15" height="40" as="geometry"/>
                </mxCell>
                <mxCell id="38" value="message replicated" style="" parent="0"/>
                <mxCell id="51" value="" style="group" parent="38" vertex="1" connectable="0">
                    <mxGeometry x="580" y="310" width="70" height="60" as="geometry"/>
                </mxCell>
                <mxCell id="39" value="" style="group" parent="51" vertex="1" connectable="0">
                    <mxGeometry width="40" height="30" as="geometry"/>
                </mxCell>
                <mxCell id="40" value="" style="rounded=0;whiteSpace=wrap;html=1;sketch=1;" parent="39" vertex="1">
                    <mxGeometry width="40" height="30" as="geometry"/>
                </mxCell>
                <mxCell id="41" value="" style="triangle;whiteSpace=wrap;html=1;sketch=1;rotation=90;" parent="39" vertex="1">
                    <mxGeometry x="12.5" y="-12.5" width="15" height="40" as="geometry"/>
                </mxCell>
                <mxCell id="42" value="" style="group" parent="51" vertex="1" connectable="0">
                    <mxGeometry x="10" y="10" width="40" height="30" as="geometry"/>
                </mxCell>
                <mxCell id="43" value="" style="rounded=0;whiteSpace=wrap;html=1;sketch=1;" parent="42" vertex="1">
                    <mxGeometry width="40" height="30" as="geometry"/>
                </mxCell>
                <mxCell id="44" value="" style="triangle;whiteSpace=wrap;html=1;sketch=1;rotation=90;" parent="42" vertex="1">
                    <mxGeometry x="12.5" y="-12.5" width="15" height="40" as="geometry"/>
                </mxCell>
                <mxCell id="45" value="" style="group" parent="51" vertex="1" connectable="0">
                    <mxGeometry x="20" y="20" width="40" height="30" as="geometry"/>
                </mxCell>
                <mxCell id="46" value="" style="rounded=0;whiteSpace=wrap;html=1;sketch=1;" parent="45" vertex="1">
                    <mxGeometry width="40" height="30" as="geometry"/>
                </mxCell>
                <mxCell id="47" value="" style="triangle;whiteSpace=wrap;html=1;sketch=1;rotation=90;" parent="45" vertex="1">
                    <mxGeometry x="12.5" y="-12.5" width="15" height="40" as="geometry"/>
                </mxCell>
                <mxCell id="48" value="" style="group" parent="51" vertex="1" connectable="0">
                    <mxGeometry x="30" y="30" width="40" height="30" as="geometry"/>
                </mxCell>
                <mxCell id="49" value="" style="rounded=0;whiteSpace=wrap;html=1;sketch=1;" parent="48" vertex="1">
                    <mxGeometry width="40" height="30" as="geometry"/>
                </mxCell>
                <mxCell id="50" value="" style="triangle;whiteSpace=wrap;html=1;sketch=1;rotation=90;" parent="48" vertex="1">
                    <mxGeometry x="12.5" y="-12.5" width="15" height="40" as="geometry"/>
                </mxCell>
                <mxCell id="52" value="" style="group" parent="38" vertex="1" connectable="0">
                    <mxGeometry x="346" y="253" width="70" height="60" as="geometry"/>
                </mxCell>
                <mxCell id="53" value="" style="group" parent="52" vertex="1" connectable="0">
                    <mxGeometry width="40" height="30" as="geometry"/>
                </mxCell>
                <mxCell id="54" value="" style="rounded=0;whiteSpace=wrap;html=1;sketch=1;" parent="53" vertex="1">
                    <mxGeometry width="40" height="30" as="geometry"/>
                </mxCell>
                <mxCell id="55" value="" style="triangle;whiteSpace=wrap;html=1;sketch=1;rotation=90;" parent="53" vertex="1">
                    <mxGeometry x="12.5" y="-12.5" width="15" height="40" as="geometry"/>
                </mxCell>
                <mxCell id="56" value="" style="group" parent="52" vertex="1" connectable="0">
                    <mxGeometry x="10" y="10" width="40" height="30" as="geometry"/>
                </mxCell>
                <mxCell id="57" value="" style="rounded=0;whiteSpace=wrap;html=1;sketch=1;" parent="56" vertex="1">
                    <mxGeometry width="40" height="30" as="geometry"/>
                </mxCell>
                <mxCell id="58" value="" style="triangle;whiteSpace=wrap;html=1;sketch=1;rotation=90;" parent="56" vertex="1">
                    <mxGeometry x="12.5" y="-12.5" width="15" height="40" as="geometry"/>
                </mxCell>
                <mxCell id="59" value="" style="group" parent="52" vertex="1" connectable="0">
                    <mxGeometry x="20" y="20" width="40" height="30" as="geometry"/>
                </mxCell>
                <mxCell id="60" value="" style="rounded=0;whiteSpace=wrap;html=1;sketch=1;" parent="59" vertex="1">
                    <mxGeometry width="40" height="30" as="geometry"/>
                </mxCell>
                <mxCell id="61" value="" style="triangle;whiteSpace=wrap;html=1;sketch=1;rotation=90;" parent="59" vertex="1">
                    <mxGeometry x="12.5" y="-12.5" width="15" height="40" as="geometry"/>
                </mxCell>
                <mxCell id="62" value="" style="group" parent="52" vertex="1" connectable="0">
                    <mxGeometry x="30" y="30" width="40" height="30" as="geometry"/>
                </mxCell>
                <mxCell id="63" value="" style="rounded=0;whiteSpace=wrap;html=1;sketch=1;" parent="62" vertex="1">
                    <mxGeometry width="40" height="30" as="geometry"/>
                </mxCell>
                <mxCell id="64" value="" style="triangle;whiteSpace=wrap;html=1;sketch=1;rotation=90;" parent="62" vertex="1">
                    <mxGeometry x="12.5" y="-12.5" width="15" height="40" as="geometry"/>
                </mxCell>
                <mxCell id="119" value="replica topic" style="shape=cylinder3;whiteSpace=wrap;html=1;boundedLbl=1;backgroundOutline=1;size=4;fontSize=10;direction=south;fillColor=#ffe6cc;strokeColor=#d79b00;sketch=1;" vertex="1" parent="38">
                    <mxGeometry x="550" y="269" width="60" height="30" as="geometry"/>
                </mxCell>
                <mxCell id="98" value="error" style="" parent="0"/>
                <mxCell id="99" value="" style="ellipse;shape=cloud;whiteSpace=wrap;html=1;sketch=1;fillColor=default;strokeColor=#b85450;" parent="98" vertex="1">
                    <mxGeometry x="50" y="140" width="190" height="240" as="geometry"/>
                </mxCell>
                <mxCell id="104" value="Boom!!!" style="ellipse;shape=cloud;whiteSpace=wrap;html=1;sketch=1;fillColor=default;strokeColor=#b85450;" parent="98" vertex="1">
                    <mxGeometry x="75.5" y="165" width="139" height="183" as="geometry"/>
                </mxCell>
                <mxCell id="120" value="reconnect" parent="0"/>
                <mxCell id="121" style="edgeStyle=orthogonalEdgeStyle;html=1;" edge="1" parent="120" source="2" target="18">
                    <mxGeometry relative="1" as="geometry"/>
                </mxCell>
                <mxCell id="122" value="topic" style="shape=cylinder3;whiteSpace=wrap;html=1;boundedLbl=1;backgroundOutline=1;size=4;fontSize=10;direction=south;fillColor=#f8cecc;strokeColor=#b85450;sketch=1;" vertex="1" parent="120">
                    <mxGeometry x="320" y="209" width="60" height="30" as="geometry"/>
                </mxCell>
                <mxCell id="123" style="edgeStyle=orthogonalEdgeStyle;html=1;entryX=0.5;entryY=0;entryDx=0;entryDy=0;entryPerimeter=0;" edge="1" parent="120" source="119" target="122">
                    <mxGeometry relative="1" as="geometry"/>
                </mxCell>
                <mxCell id="124" value="" style="rounded=0;whiteSpace=wrap;html=1;strokeColor=none;" vertex="1" parent="120">
                    <mxGeometry x="47" y="150" width="200" height="234" as="geometry"/>
                </mxCell>
            </root>
        </mxGraphModel>
    </diagram>
</mxfile>